<mxfile host="app.diagrams.net" modified="2021-11-18T11:51:56.965Z" agent="5.0 (X11; Linux x86_64) AppleWebKit/537.36 (KHTML, like Gecko) Chrome/92.0.4515.159 Safari/537.36" etag="z8mHxrZ6NSFJaByfNNUr" version="15.7.0" type="github">
  <diagram id="xMEIPElQcj9uThGjCPfs" name="第 1 页">
    <mxGraphModel dx="1355" dy="746" grid="1" gridSize="10" guides="1" tooltips="1" connect="1" arrows="1" fold="1" page="1" pageScale="1" pageWidth="850" pageHeight="1100" math="0" shadow="0">
      <root>
        <mxCell id="0" />
        <mxCell id="1" parent="0" />
        <mxCell id="h-DT6y0GIO_MS0DffADh-4" value="FWS2.0" style="rounded=1;whiteSpace=wrap;html=1;labelBackgroundColor=none;fillColor=#fff2cc;strokeColor=#d6b656;" parent="1" vertex="1">
          <mxGeometry x="150" y="70" width="180" height="110" as="geometry" />
        </mxCell>
        <mxCell id="h-DT6y0GIO_MS0DffADh-9" value="科洛达云端" style="rounded=1;whiteSpace=wrap;html=1;fillColor=#dae8fc;strokeColor=#6c8ebf;" parent="1" vertex="1">
          <mxGeometry x="540" y="70" width="200" height="110" as="geometry" />
        </mxCell>
        <mxCell id="h-DT6y0GIO_MS0DffADh-10" value="车端DA" style="rounded=1;whiteSpace=wrap;html=1;fillColor=#dae8fc;strokeColor=#6c8ebf;" parent="1" vertex="1">
          <mxGeometry x="523.75" y="400" width="232.5" height="75" as="geometry" />
        </mxCell>
        <mxCell id="h-DT6y0GIO_MS0DffADh-12" value="" style="html=1;shadow=0;dashed=0;align=center;verticalAlign=middle;shape=mxgraph.arrows2.arrow;dy=0.6;dx=40;notch=0;fillColor=#d5e8d4;strokeColor=#82b366;" parent="1" vertex="1">
          <mxGeometry x="330" y="90" width="210" height="70" as="geometry" />
        </mxCell>
        <mxCell id="h-DT6y0GIO_MS0DffADh-13" value="整包数据流转" style="shape=parallelogram;perimeter=parallelogramPerimeter;whiteSpace=wrap;html=1;fixedSize=1;fillColor=#6d8764;fontColor=#ffffff;strokeColor=#3A5431;" parent="1" vertex="1">
          <mxGeometry x="370" y="70" width="110" height="40" as="geometry" />
        </mxCell>
        <mxCell id="h-DT6y0GIO_MS0DffADh-16" value="云端获取车辆信息、版本号&lt;br&gt;车端URL请求下载" style="html=1;shadow=0;dashed=0;align=center;verticalAlign=middle;shape=mxgraph.arrows2.twoWayArrow;dy=0.6;dx=35;labelBackgroundColor=none;fontSize=14;direction=south;fillColor=#d5e8d4;strokeColor=#82b366;" parent="1" vertex="1">
          <mxGeometry x="595" y="180" width="90" height="220" as="geometry" />
        </mxCell>
        <mxCell id="qagPwID3bsfv2z5dnXG7-1" value="ota-agent" style="rounded=1;whiteSpace=wrap;html=1;fillColor=#fff2cc;strokeColor=#d6b656;" vertex="1" parent="1">
          <mxGeometry x="157.5" y="400.75" width="157.5" height="78.5" as="geometry" />
        </mxCell>
        <mxCell id="qagPwID3bsfv2z5dnXG7-2" value="集成方式-Dji小包" style="text;html=1;strokeColor=none;fillColor=none;align=center;verticalAlign=middle;whiteSpace=wrap;rounded=0;" vertex="1" parent="1">
          <mxGeometry x="183.75" y="479.25" width="105" height="30" as="geometry" />
        </mxCell>
        <mxCell id="qagPwID3bsfv2z5dnXG7-3" value="集成方式-手动部署" style="text;html=1;strokeColor=none;fillColor=none;align=center;verticalAlign=middle;whiteSpace=wrap;rounded=0;" vertex="1" parent="1">
          <mxGeometry x="580" y="475" width="120" height="25" as="geometry" />
        </mxCell>
        <mxCell id="qagPwID3bsfv2z5dnXG7-5" value="" style="html=1;shadow=0;dashed=0;align=center;verticalAlign=middle;shape=mxgraph.arrows2.arrow;dy=0.6;dx=40;notch=0;fillColor=#d5e8d4;strokeColor=#82b366;direction=west;" vertex="1" parent="1">
          <mxGeometry x="320" y="405" width="190" height="70" as="geometry" />
        </mxCell>
        <mxCell id="qagPwID3bsfv2z5dnXG7-6" value="Xavier1-Xavier7" style="rounded=1;whiteSpace=wrap;html=1;fillColor=#fff2cc;strokeColor=#d6b656;fontSize=20;fontStyle=0" vertex="1" parent="1">
          <mxGeometry x="150" y="580" width="372.5" height="170" as="geometry" />
        </mxCell>
        <mxCell id="qagPwID3bsfv2z5dnXG7-7" value="" style="html=1;shadow=0;dashed=0;align=center;verticalAlign=middle;shape=mxgraph.arrows2.arrow;dy=0.6;dx=40;notch=0;fillColor=#d5e8d4;strokeColor=#82b366;direction=south;" vertex="1" parent="1">
          <mxGeometry x="211.25" y="500" width="50" height="80" as="geometry" />
        </mxCell>
        <mxCell id="qagPwID3bsfv2z5dnXG7-8" value="" style="rounded=0;whiteSpace=wrap;html=1;fontSize=20;fillColor=none;strokeWidth=2;strokeColor=#FF0000;" vertex="1" parent="1">
          <mxGeometry x="80" y="260" width="730" height="500" as="geometry" />
        </mxCell>
        <mxCell id="qagPwID3bsfv2z5dnXG7-9" value="车端环境" style="text;html=1;strokeColor=none;fillColor=none;align=center;verticalAlign=middle;whiteSpace=wrap;rounded=0;fontSize=20;" vertex="1" parent="1">
          <mxGeometry x="650" y="700" width="140" height="50" as="geometry" />
        </mxCell>
        <mxCell id="qagPwID3bsfv2z5dnXG7-10" value="" style="rounded=0;whiteSpace=wrap;html=1;fontSize=20;strokeColor=#007FFF;strokeWidth=2;fillColor=none;" vertex="1" parent="1">
          <mxGeometry x="50" y="20" width="780" height="220" as="geometry" />
        </mxCell>
        <mxCell id="qagPwID3bsfv2z5dnXG7-11" value="云端环境" style="text;html=1;strokeColor=none;fillColor=none;align=center;verticalAlign=middle;whiteSpace=wrap;rounded=0;fontSize=20;" vertex="1" parent="1">
          <mxGeometry x="50" y="190" width="140" height="50" as="geometry" />
        </mxCell>
      </root>
    </mxGraphModel>
  </diagram>
</mxfile>
